<svg xmlns="http://www.w3.org/2000/svg" version="1.1" xmlns:xlink="http://www.w3.org/1999/xlink" width="512" height="512" x="0" y="0" viewBox="0 0 512 512" style="enable-background:new 0 0 512 512" xml:space="preserve"><g><path d="M488.582 334.12a8 8 0 0 0-10.477 1.067c-32.145 34.444-73.47 61.664-119.508 78.718-74.604 27.637-161.509 25.236-228.646-5.978l6.485-20.795a8.002 8.002 0 0 0-7.637-10.382h-.003c-40.765.002-76.103-6.381-96.91-17.55a8 8 0 0 0-11.777 6.737C18.21 414.7 60.07 472.284 90.4 497.598a7.999 7.999 0 0 0 12.764-3.761l4.63-14.85c33.084 14.479 68.058 22.753 104.102 24.615 5.151.267 10.293.399 15.426.399 35.198 0 69.891-6.252 103.336-18.641 69.183-25.627 126.141-75.702 160.382-141.002a7.999 7.999 0 0 0-2.458-10.238zM325.098 470.358c-71.849 26.616-149.56 23.19-218.815-9.64a7.992 7.992 0 0 0-6.638-.098 8.002 8.002 0 0 0-4.427 4.946l-3.588 11.508c-23.178-22.895-50.509-62.615-54.96-98.135 26.116 10.146 58.491 13.039 81.299 13.665l-5.348 17.146a8 8 0 0 0 4.058 9.536c35.976 18.005 78.095 28.301 121.803 29.775 42.729 1.44 86.188-5.527 125.674-20.153 28.538-10.571 55.363-24.874 79.515-42.274-31.289 37.519-72.004 66.474-118.573 83.724zM93.289 302.988l158.652 93.364c1.252.737 2.655 1.105 4.058 1.105s2.806-.368 4.058-1.105l158.653-93.364a8.003 8.003 0 0 0 3.942-6.895v-186.73c0-2.834-1.5-5.457-3.942-6.895L260.056 9.103a7.994 7.994 0 0 0-8.115 0L93.289 102.469a8.003 8.003 0 0 0-3.942 6.895v186.73a7.997 7.997 0 0 0 3.942 6.894zm12.057-179.635 142.652 83.949v168.165l-142.652-83.948zm206.975 36.948L169.44 76.218l30.237-17.794 142.88 84.083zm38.009-3.803v54.967l-30.009 17.659-.001-54.965zm-53.783 13.085-40.549 23.863-142.879-84.083 40.548-23.862zm-32.548 205.885V207.303l40.321-23.729.001 59.54a7.996 7.996 0 0 0 4.029 6.944 7.99 7.99 0 0 0 8.029-.049l46.009-27.075a8.003 8.003 0 0 0 3.942-6.895v-68.956l40.322-23.729V291.52zm-8-350.188 142.88 84.083-40.549 23.863-142.88-84.084z" fill="#000000" opacity="1" data-original="#000000"></path></g></svg>