<svg xmlns="http://www.w3.org/2000/svg" version="1.1" xmlns:xlink="http://www.w3.org/1999/xlink" width="512" height="512" x="0" y="0" viewBox="0 0 512 512" style="enable-background:new 0 0 512 512" xml:space="preserve" class=""><g><path fill="#1B557D" d="M481.874 102.698c13.854 0 25.126 11.271 25.126 25.126v257.899c0 13.854-11.271 25.126-25.126 25.126H30.143c-13.854 0-25.126-11.271-25.126-25.126V127.824c0-13.854 11.271-25.126 25.126-25.126zm0-5H30.143c-16.638 0-30.126 13.488-30.126 30.126v257.899c0 16.64 13.488 30.126 30.126 30.126h451.731c16.64 0 30.126-13.486 30.126-30.126V127.824c0-16.638-13.487-30.126-30.126-30.126z" opacity="1" data-original="#1b557d" class=""></path><path fill="#107DB0" d="M380.913 219.579c-10.783 0-19.312 2.862-25.833 4.165l-2.01 16.392c3.263-1.562 13.545-4.422 22.076-4.684 8.528-.261 13.544 1.559 11.791 8.847-25.336 0-42.396 5.202-45.907 21.598-5.021 28.104 25.841 27.322 38.13 15.092l-1.507 6.767h22.576l9.787-44.757c4.009-18.999-13.3-23.679-29.103-23.42zm1.505 45.796c-1.254 5.982-6.017 8.589-11.786 8.852-5.016.256-9.535-4.17-6.272-9.371 2.513-4.422 9.535-5.465 13.799-5.465h5.519c-.507 2.082-.763 3.906-1.26 5.984zM429.327 201.88l-18.678 85.874h22.934l18.908-85.874zM323.965 202.144H281.98l-18.605 85.61h24.387l6.287-28.363h17.35c17.093 0 31.174-10.408 34.947-28.104 4.268-20.035-10.313-29.143-22.381-29.143zm-.75 29.143c-1.513 6.506-8.05 11.71-14.338 11.71h-11.311l5.03-23.418h12.066c6.29 0 10.06 5.204 8.553 11.708z" opacity="1" data-original="#107db0"></path><g fill="#1B557D"><path d="M161.04 219.579c-10.655 0-19.083 2.862-25.277 4.165l-1.981 16.392c2.973-1.562 13.136-4.422 21.557-4.684 8.427-.261 13.384 1.559 11.895 8.847-25.026 0-41.876 5.202-45.346 21.598-4.958 28.104 25.521 27.322 37.414 15.092l-1.484 6.767h22.55l9.663-44.757c3.965-18.999-13.383-23.679-28.991-23.42zm1.732 45.796c-1.238 5.982-6.195 8.589-11.894 8.852-4.957.256-9.168-4.17-5.947-9.371 2.477-4.422 9.415-5.465 13.381-5.465h5.699c-.494 2.082-.99 3.906-1.239 5.984zM199.855 220.809h22.547l3.638 39.871 22.063-39.871h23.268l-53.575 95.42h-25.214l16.482-28.054zM104.955 202.144H62.86l-18.652 85.61h24.705l6.048-28.363h17.642c16.888 0 31.006-10.408 34.785-28.104 4.283-20.035-10.083-29.143-22.433-29.143zm-.757 29.143c-1.512 6.506-7.813 11.71-14.115 11.71H78.488l5.294-23.418H95.88c6.052 0 10.083 5.204 8.318 11.708zM457.442 212.979v-10.123h-3.777V201.5h9.1v1.356h-3.797v10.123zM464.27 212.979V201.5h2.273l2.725 8.125c.251.756.434 1.322.549 1.698.132-.417.337-1.03.611-1.839l2.756-7.984h2.044v11.479h-1.461v-9.61l-3.351 9.61h-1.367l-3.318-9.767v9.767z" fill="#1B557D" opacity="1" data-original="#1b557d" class=""></path></g></g></svg>