<?xml version="1.0" encoding="UTF-8"?>
<svg version="1.1" xmlns="http://www.w3.org/2000/svg" width="225" height="721">
<path d="M0 0 C38.28 0 76.56 0 116 0 C116.0441297 49.99725334 116.08104312 99.99448825 116.10213066 149.9917555 C116.10463193 155.90067232 116.10722059 161.8095891 116.10986328 167.71850586 C116.1103879 168.8948148 116.11091252 170.07112373 116.11145304 171.28307839 C116.12014453 190.30446972 116.13590757 209.3258489 116.15430559 228.34723303 C116.17303961 247.87958837 116.18412412 267.41193736 116.18817699 286.94430131 C116.19091479 298.98697793 116.19954728 311.02962022 116.21583293 323.07228627 C116.22644308 331.34170841 116.22959154 339.61111292 116.22700275 347.88054136 C116.22572772 352.64432051 116.22761727 357.40803985 116.23841095 362.17180824 C116.24825011 366.54661693 116.24856693 370.92132642 116.24179779 375.29613998 C116.24096302 376.86578324 116.24340899 378.43543308 116.24976636 380.00506369 C116.30665829 394.93915916 115.46283835 410.09001641 111.8125 424.625 C111.59819336 425.49415039 111.38388672 426.36330078 111.16308594 427.25878906 C106.54277836 445.13225613 98.23845368 464.04484015 86 478 C85.40960938 478.7321875 84.81921875 479.464375 84.2109375 480.21875 C66.43873553 501.57464701 37.83914753 511.24077783 11 514 C5.44022012 514.26223671 -0.12222231 514.29489635 -5.6875 514.3125 C-6.47812836 514.31511841 -7.26875671 514.31773682 -8.08334351 514.32043457 C-40.04291026 514.33169516 -68.16274409 507.51551735 -97 494 C-95.66736427 487.23091366 -93.67787496 481.07433816 -91.140625 474.66796875 C-90.7591481 473.68930847 -90.3776712 472.71064819 -89.9846344 471.70233154 C-88.74582887 468.528308 -87.4979869 465.35792336 -86.25 462.1875 C-85.39349034 459.99772509 -84.5376196 457.80770018 -83.68237305 455.61743164 C-81.95660303 451.20009259 -80.22752195 446.78407332 -78.49560547 442.36914062 C-75.22043431 434.01675284 -71.97301084 425.65363239 -68.72619629 417.29019165 C-67.2840879 413.57688297 -65.8394029 409.86457792 -64.39453125 406.15234375 C-63.92893799 404.95601318 -63.46334473 403.75968262 -62.98364258 402.52709961 C-62.65904053 401.69315674 -62.33443848 400.85921387 -62 400 C-58.66325553 400.7784853 -55.84281375 401.9485311 -52.75 403.4375 C-42.184495 408.25392257 -30.72954877 410.48161218 -19.4375 406.3125 C-12.04433338 402.86396893 -7.28399555 396.73634345 -4.375 389.1875 C-0.71792466 376.9997632 -0.70227838 363.62492923 -0.7215271 351.02293396 C-0.71650753 349.49445733 -0.71062697 347.96598333 -0.70397437 346.43751293 C-0.68836103 342.29153028 -0.68475415 338.1456157 -0.68332577 333.99960721 C-0.67959862 329.50836566 -0.6644271 325.01716007 -0.65071106 320.52593994 C-0.62853755 312.76252566 -0.61346498 304.99912434 -0.60334396 297.23568535 C-0.58870057 286.01133737 -0.56314822 274.78703458 -0.53501268 263.56271327 C-0.48964703 245.34789183 -0.45299015 227.13306384 -0.421875 208.91821289 C-0.39164743 191.23395642 -0.35727794 173.54971593 -0.31738281 155.86547852 C-0.31492126 154.77371744 -0.31245972 153.68195636 -0.30992357 152.55711161 C-0.29754816 147.07955809 -0.28509178 141.60200476 -0.27259517 136.12445152 C-0.16918065 90.74965327 -0.08154326 45.37484386 0 0 Z " fill="#00800B" transform="translate(97,207)"/>
<path d="M0 0 C13.19669844 11.0733199 22.83617446 26.73224372 25 44 C26.50545459 65.56233553 21.85062175 83.73768338 7.42578125 100.44140625 C-5.0865791 113.63882336 -20.83017822 121.71742434 -39 123 C-39.73605469 123.05414063 -40.47210938 123.10828125 -41.23046875 123.1640625 C-58.8214871 123.81230773 -75.49220926 117.58525129 -88.76953125 106.109375 C-102.38888488 93.22942586 -111.45252975 78.38094469 -112.33984375 59.32421875 C-112.38670848 57.29975988 -112.41926775 55.27491916 -112.4375 53.25 C-112.4478125 52.30390869 -112.458125 51.35781738 -112.46875 50.38305664 C-112.25614624 33.42052447 -104.73009075 17.48006852 -92.78515625 5.6171875 C-66.09688501 -19.46155266 -29.7868679 -22.04833473 0 0 Z " fill="#00800B" transform="translate(200,15)"/>
</svg>
