<svg xmlns="http://www.w3.org/2000/svg" version="1.1" xmlns:xlink="http://www.w3.org/1999/xlink" width="512" height="512" x="0" y="0" viewBox="0 0 512 512" style="enable-background:new 0 0 512 512" xml:space="preserve" class=""><g><g fill-rule="evenodd" clip-rule="evenodd"><path fill="#596C76" d="M68.955 462.482v38.526a4.08 4.08 0 0 1-4.068 4.067H40.136a4.079 4.079 0 0 1-4.067-4.067v-38.526a4.08 4.08 0 0 1 4.067-4.068h24.751a4.08 4.08 0 0 1 4.068 4.068zm406.976 0v38.526a4.079 4.079 0 0 1-4.067 4.067h-24.751a4.08 4.08 0 0 1-4.068-4.067v-38.526a4.08 4.08 0 0 1 4.068-4.068h24.751a4.08 4.08 0 0 1 4.067 4.068z" opacity="1" data-original="#596c76"></path><path fill="#465A61" d="M68.955 462.482v38.526a4.08 4.08 0 0 1-4.068 4.067h-9.3a4.08 4.08 0 0 0 4.068-4.067v-38.526a4.08 4.08 0 0 0-4.068-4.068h9.3a4.08 4.08 0 0 1 4.068 4.068zm406.976 0v38.526a4.079 4.079 0 0 1-4.067 4.067h-9.3a4.08 4.08 0 0 0 4.068-4.067v-38.526a4.08 4.08 0 0 0-4.068-4.068h9.3a4.08 4.08 0 0 1 4.067 4.068z" opacity="1" data-original="#465a61"></path><path fill="#8D9CA8" d="M12.396 444.094h487.208A3.406 3.406 0 0 1 503 447.49v20.668a3.406 3.406 0 0 1-3.396 3.396H12.396A3.406 3.406 0 0 1 9 468.158V447.49a3.406 3.406 0 0 1 3.396-3.396z" opacity="1" data-original="#8d9ca8"></path><path fill="#7A8C98" d="M493 444.094h6.604A3.406 3.406 0 0 1 503 447.49v20.668a3.406 3.406 0 0 1-3.396 3.396H12.396A3.406 3.406 0 0 1 9 468.158v-6.604h480.604a3.406 3.406 0 0 0 3.396-3.396z" opacity="1" data-original="#7a8c98"></path><path fill="#DA8C36" d="M17.985 6.925h146.698c4.943 0 8.986 4.044 8.986 8.986v124.42c0 4.943-4.044 8.986-8.986 8.986H17.985c-4.943 0-8.986-4.044-8.986-8.986V15.911c-.001-4.942 4.043-8.986 8.986-8.986z" opacity="1" data-original="#da8c36" class=""></path><path fill="#C97629" d="M162.659 6.925h2.023c4.943 0 8.986 4.044 8.986 8.986v124.42c0 4.943-4.043 8.986-8.986 8.986H17.985c-4.943 0-8.986-4.044-8.986-8.986v-2.85h144.675c4.943 0 8.986-4.043 8.986-8.986V6.925z" opacity="1" data-original="#c97629"></path><path fill="#EFF4F7" d="M39.512 99.982h32.436a3.564 3.564 0 0 1 3.554 3.554v15.267a3.563 3.563 0 0 1-3.554 3.553H39.512a3.564 3.564 0 0 1-3.554-3.553v-15.267a3.565 3.565 0 0 1 3.554-3.554z" opacity="1" data-original="#eff4f7"></path><path fill="#E2E3E3" d="M39.512 99.982h32.436a3.564 3.564 0 0 1 3.554 3.554v1.956h-30.48a3.564 3.564 0 0 0-3.554 3.554v13.31h-1.956a3.564 3.564 0 0 1-3.554-3.553v-15.267a3.565 3.565 0 0 1 3.554-3.554z" opacity="1" data-original="#e2e3e3"></path><path fill="#FFDA2D" d="M64.709 6.925h53.248v35.264c0 3.358-3.892 5.2-6.489 3.071L93.851 30.817a3.94 3.94 0 0 0-5.036 0L71.198 45.26c-2.596 2.129-6.489.287-6.489-3.071z" opacity="1" data-original="#ffda2d" class=""></path><path fill="#FFC700" d="M112.248 6.925h5.709v35.264c0 3.358-3.892 5.2-6.489 3.071l-5.704-4.676c2.597 2.121 6.483.279 6.483-3.076V6.925zM93.842 30.809a3.94 3.94 0 0 0-5.026.008L71.199 45.26c-2.597 2.129-6.489.287-6.489-3.071v-1.104c.269-.133.53-.301.78-.505l17.617-14.443a3.942 3.942 0 0 1 5.036 0z" opacity="1" data-original="#ffc700"></path><path fill="#DA8C36" d="M17.985 149.314h146.698c4.943 0 8.986 4.044 8.986 8.986v124.42c0 4.942-4.044 8.986-8.986 8.986H17.985c-4.943 0-8.986-4.044-8.986-8.986V158.3c-.001-4.942 4.043-8.986 8.986-8.986z" opacity="1" data-original="#da8c36" class=""></path><path fill="#C97629" d="M162.659 149.314h2.023c4.943 0 8.986 4.044 8.986 8.986v124.42c0 4.942-4.043 8.986-8.986 8.986H17.985c-4.943 0-8.986-4.044-8.986-8.986v-2.85h144.675c4.943 0 8.986-4.043 8.986-8.986v-121.57z" opacity="1" data-original="#c97629"></path><path fill="#EFF4F7" d="M39.512 242.372h32.436a3.564 3.564 0 0 1 3.554 3.554v15.267a3.564 3.564 0 0 1-3.554 3.554H39.512a3.564 3.564 0 0 1-3.554-3.554v-15.267a3.564 3.564 0 0 1 3.554-3.554z" opacity="1" data-original="#eff4f7"></path><path fill="#E2E3E3" d="M39.512 242.372h32.436a3.564 3.564 0 0 1 3.554 3.554v1.956h-30.48a3.564 3.564 0 0 0-3.554 3.554v13.31h-1.956a3.564 3.564 0 0 1-3.554-3.554v-15.267a3.564 3.564 0 0 1 3.554-3.553z" opacity="1" data-original="#e2e3e3"></path><path fill="#FFDA2D" d="M64.709 149.314h53.248v35.264c0 3.358-3.892 5.2-6.489 3.071l-17.617-14.443a3.94 3.94 0 0 0-5.036 0l-17.617 14.443c-2.596 2.129-6.489.286-6.489-3.071z" opacity="1" data-original="#ffda2d" class=""></path><path fill="#FFC700" d="M112.248 149.314h5.709v35.264c0 3.358-3.892 5.2-6.489 3.071l-5.704-4.676c2.597 2.121 6.483.279 6.483-3.076v-30.583zm-18.406 23.884a3.94 3.94 0 0 0-5.026.008l-17.617 14.443c-2.597 2.129-6.489.287-6.489-3.071v-1.104c.269-.133.53-.301.78-.505l17.617-14.443a3.942 3.942 0 0 1 5.036 0z" opacity="1" data-original="#ffc700"></path><path fill="#DA8C36" d="M182.651 149.314h146.698c4.943 0 8.986 4.044 8.986 8.986v124.42c0 4.942-4.044 8.986-8.986 8.986H182.651c-4.942 0-8.986-4.044-8.986-8.986V158.3c0-4.942 4.044-8.986 8.986-8.986z" opacity="1" data-original="#da8c36" class=""></path><path fill="#C97629" d="M327.326 149.314h2.023c4.942 0 8.986 4.044 8.986 8.986v124.42c0 4.942-4.043 8.986-8.986 8.986H182.651c-4.943 0-8.986-4.044-8.986-8.986v-2.85H318.34c4.943 0 8.986-4.043 8.986-8.986z" opacity="1" data-original="#c97629"></path><path fill="#EFF4F7" d="M204.179 242.372h32.436a3.564 3.564 0 0 1 3.554 3.554v15.267a3.564 3.564 0 0 1-3.554 3.554h-32.436a3.564 3.564 0 0 1-3.554-3.554v-15.267a3.563 3.563 0 0 1 3.554-3.554z" opacity="1" data-original="#eff4f7"></path><path fill="#E2E3E3" d="M204.179 242.372h32.436a3.564 3.564 0 0 1 3.554 3.554v1.956h-30.48a3.564 3.564 0 0 0-3.554 3.554v13.31h-1.956a3.564 3.564 0 0 1-3.554-3.554v-15.267a3.563 3.563 0 0 1 3.554-3.553z" opacity="1" data-original="#e2e3e3"></path><path fill="#FFDA2D" d="M229.376 149.314h53.248v35.264c0 3.358-3.892 5.2-6.489 3.071l-17.617-14.443a3.94 3.94 0 0 0-5.036 0l-17.617 14.443c-2.596 2.129-6.489.286-6.489-3.071z" opacity="1" data-original="#ffda2d" class=""></path><path fill="#FFC700" d="M276.914 149.314h5.71v35.264c0 3.358-3.892 5.2-6.489 3.071l-5.704-4.676c2.597 2.121 6.483.279 6.483-3.076zm-18.406 23.884a3.94 3.94 0 0 0-5.026.008l-17.617 14.443c-2.596 2.129-6.489.287-6.489-3.071v-1.104c.269-.133.53-.301.78-.505l17.617-14.443a3.942 3.942 0 0 1 5.036 0z" opacity="1" data-original="#ffc700"></path><path fill="#DA8C36" d="M17.985 291.703h146.698c4.943 0 8.986 4.044 8.986 8.986v124.42c0 4.943-4.044 8.986-8.986 8.986H17.985c-4.943 0-8.986-4.044-8.986-8.986v-124.42c-.001-4.942 4.043-8.986 8.986-8.986z" opacity="1" data-original="#da8c36" class=""></path><path fill="#C97629" d="M162.659 291.703h2.023c4.943 0 8.986 4.044 8.986 8.986v124.42c0 4.943-4.043 8.986-8.986 8.986H17.985c-4.943 0-8.986-4.044-8.986-8.986v-2.85h144.675c4.943 0 8.986-4.043 8.986-8.986v-121.57z" opacity="1" data-original="#c97629"></path><path fill="#EFF4F7" d="M39.512 384.761h32.436a3.564 3.564 0 0 1 3.554 3.554v15.266a3.563 3.563 0 0 1-3.554 3.553H39.512a3.564 3.564 0 0 1-3.554-3.553v-15.266a3.564 3.564 0 0 1 3.554-3.554z" opacity="1" data-original="#eff4f7"></path><path fill="#E2E3E3" d="M39.512 384.761h32.436a3.564 3.564 0 0 1 3.554 3.554v1.956h-30.48a3.564 3.564 0 0 0-3.554 3.554v13.31h-1.956a3.564 3.564 0 0 1-3.554-3.553v-15.266a3.564 3.564 0 0 1 3.554-3.555z" opacity="1" data-original="#e2e3e3"></path><path fill="#FFDA2D" d="M64.709 291.703h53.248v35.264c0 3.358-3.892 5.2-6.489 3.071l-17.617-14.443a3.94 3.94 0 0 0-5.036 0l-17.617 14.443c-2.596 2.129-6.489.287-6.489-3.071z" opacity="1" data-original="#ffda2d" class=""></path><path fill="#FFC700" d="M112.248 291.703h5.709v35.264c0 3.358-3.892 5.2-6.489 3.071l-5.704-4.676c2.597 2.121 6.483.28 6.483-3.076v-30.583zm-18.406 23.884a3.94 3.94 0 0 0-5.026.008l-17.617 14.443c-2.597 2.129-6.489.287-6.489-3.071v-1.104c.269-.133.53-.301.78-.505l17.617-14.443a3.942 3.942 0 0 1 5.036 0z" opacity="1" data-original="#ffc700"></path><path fill="#DA8C36" d="M182.651 291.703h146.698c4.943 0 8.986 4.044 8.986 8.986v124.42c0 4.943-4.044 8.986-8.986 8.986H182.651c-4.942 0-8.986-4.044-8.986-8.986v-124.42c0-4.942 4.044-8.986 8.986-8.986z" opacity="1" data-original="#da8c36" class=""></path><path fill="#C97629" d="M327.326 291.703h2.023c4.942 0 8.986 4.044 8.986 8.986v124.42c0 4.943-4.043 8.986-8.986 8.986H182.651c-4.943 0-8.986-4.044-8.986-8.986v-2.85H318.34c4.943 0 8.986-4.043 8.986-8.986z" opacity="1" data-original="#c97629"></path><path fill="#EFF4F7" d="M204.179 384.761h32.436a3.564 3.564 0 0 1 3.554 3.554v15.266a3.563 3.563 0 0 1-3.554 3.553h-32.436a3.564 3.564 0 0 1-3.554-3.553v-15.266a3.563 3.563 0 0 1 3.554-3.554z" opacity="1" data-original="#eff4f7"></path><path fill="#E2E3E3" d="M204.179 384.761h32.436a3.564 3.564 0 0 1 3.554 3.554v1.956h-30.48a3.564 3.564 0 0 0-3.554 3.554v13.31h-1.956a3.564 3.564 0 0 1-3.554-3.553v-15.266a3.564 3.564 0 0 1 3.554-3.555z" opacity="1" data-original="#e2e3e3"></path><path fill="#FFDA2D" d="M229.376 291.703h53.248v35.264c0 3.358-3.892 5.2-6.489 3.071l-17.617-14.443a3.94 3.94 0 0 0-5.036 0l-17.617 14.443c-2.596 2.129-6.489.287-6.489-3.071z" opacity="1" data-original="#ffda2d" class=""></path><path fill="#FFC700" d="M276.914 291.703h5.71v35.264c0 3.358-3.892 5.2-6.489 3.071l-5.704-4.676c2.597 2.121 6.483.28 6.483-3.076zm-18.406 23.884a3.94 3.94 0 0 0-5.026.008l-17.617 14.443c-2.596 2.129-6.489.287-6.489-3.071v-1.104c.269-.133.53-.301.78-.505l17.617-14.443a3.942 3.942 0 0 1 5.036 0z" opacity="1" data-original="#ffc700"></path><path fill="#DA8C36" d="M347.318 291.703h146.698c4.942 0 8.986 4.044 8.986 8.986v124.42c0 4.943-4.044 8.986-8.986 8.986H347.318c-4.942 0-8.986-4.044-8.986-8.986v-124.42c0-4.942 4.043-8.986 8.986-8.986z" opacity="1" data-original="#da8c36" class=""></path><path fill="#C97629" d="M491.992 291.703h2.023c4.943 0 8.986 4.044 8.986 8.986v124.42c0 4.943-4.043 8.986-8.986 8.986H347.318c-4.943 0-8.986-4.044-8.986-8.986v-2.85h144.675c4.943 0 8.986-4.043 8.986-8.986v-121.57z" opacity="1" data-original="#c97629"></path><path fill="#EFF4F7" d="M368.845 384.761h32.436a3.564 3.564 0 0 1 3.554 3.554v15.266a3.563 3.563 0 0 1-3.554 3.553h-32.436a3.564 3.564 0 0 1-3.554-3.553v-15.266a3.564 3.564 0 0 1 3.554-3.554z" opacity="1" data-original="#eff4f7"></path><path fill="#E2E3E3" d="M368.845 384.761h32.436a3.564 3.564 0 0 1 3.554 3.554v1.956h-30.48a3.564 3.564 0 0 0-3.554 3.554v13.31h-1.956a3.564 3.564 0 0 1-3.554-3.553v-15.266a3.564 3.564 0 0 1 3.554-3.555z" opacity="1" data-original="#e2e3e3"></path><path fill="#FFDA2D" d="M394.042 291.703h53.248v35.264c0 3.358-3.892 5.2-6.489 3.071l-17.617-14.443a3.94 3.94 0 0 0-5.036 0l-17.617 14.443c-2.596 2.129-6.489.287-6.489-3.071z" opacity="1" data-original="#ffda2d" class=""></path><path fill="#FFC700" d="M441.581 291.703h5.71v35.264c0 3.358-3.892 5.2-6.489 3.071l-5.704-4.676c2.597 2.121 6.483.28 6.483-3.076zm-18.406 23.884a3.94 3.94 0 0 0-5.026.008l-17.617 14.443c-2.596 2.129-6.489.287-6.489-3.071v-1.104c.269-.133.53-.301.78-.505l17.617-14.443a3.942 3.942 0 0 1 5.036 0z" opacity="1" data-original="#ffc700"></path></g></g></svg>