<svg xmlns="http://www.w3.org/2000/svg" version="1.1" xmlns:xlink="http://www.w3.org/1999/xlink" width="512" height="512" x="0" y="0" viewBox="0 0 64 64" style="enable-background:new 0 0 512 512" xml:space="preserve" class=""><g><path d="M31 31a1 1 0 0 0 .641-.232l4.318-3.6A22.288 22.288 0 0 0 44 10a1 1 0 0 0-1-1h-.6a17.314 17.314 0 0 1-10.775-3.781 1 1 0 0 0-1.25 0A17.314 17.314 0 0 1 19.6 9H19a1 1 0 0 0-1 1 22.285 22.285 0 0 0 8.041 17.168l4.318 3.6A1 1 0 0 0 31 31ZM20.024 11A19.329 19.329 0 0 0 31 7.26 19.334 19.334 0 0 0 41.976 11a20.284 20.284 0 0 1-7.3 14.637L31 28.7l-3.679-3.065A20.283 20.283 0 0 1 20.024 11Z" fill="#000000" opacity="1" data-original="#000000" class=""></path><path d="m31.65 25.759 3.129-2.681a15.838 15.838 0 0 0 5.2-8.882A1 1 0 0 0 39 13a11.069 11.069 0 0 1-6.6-2.2l-.8-.6a1 1 0 0 0-1.2 0l-.8.6A11.074 11.074 0 0 1 23 13a1 1 0 0 0-.98 1.2 15.838 15.838 0 0 0 5.2 8.882l3.129 2.681a1 1 0 0 0 1.3 0Zm-3.129-4.2a13.839 13.839 0 0 1-4.262-6.621A13.106 13.106 0 0 0 30.8 12.4l.2-.15.2.15a13.1 13.1 0 0 0 6.541 2.538 13.839 13.839 0 0 1-4.262 6.621L31 23.683Z" fill="#000000" opacity="1" data-original="#000000" class=""></path><path d="M62 35h-9V2a1 1 0 0 0-1-1H10a1 1 0 0 0-1 1v25H2a1 1 0 0 0-1 1v30a5.006 5.006 0 0 0 5 5h42a5.006 5.006 0 0 0 5-5v-3h9a1 1 0 0 0 1-1V36a1 1 0 0 0-1-1ZM3 58V29h6v29a3 3 0 0 1-6 0Zm48 0a3 3 0 0 1-3 3H9.974A4.948 4.948 0 0 0 11 58V3h40v32h-1a1 1 0 0 0-1 1v1h-2.586L43 33.586V28a1 1 0 0 0-1-1h-1a4 4 0 0 0-4 4v6h-7a3 3 0 0 0-3 3v12a3 3 0 0 0 3 3h12a1 1 0 0 0 .447-.1l3.789-1.9H49v1a1 1 0 0 0 1 1h1Zm-2-7h-3a1 1 0 0 0-.447.1L41.764 53H30a1 1 0 0 1-1-1v-1h8v-2h-8v-2h8v-2h-8v-2h8v-2h-8v-1a1 1 0 0 1 1-1h8a1 1 0 0 0 1-1v-7a2 2 0 0 1 2-2v5a1 1 0 0 0 .293.707l4 4A1 1 0 0 0 46 39h3Zm12 2H51V37h10Z" fill="#000000" opacity="1" data-original="#000000" class=""></path><path d="M22.46 31.126A.974.974 0 0 0 22 31h-8a1 1 0 0 0-1 1v8a1 1 0 0 0 1 1h8a1 1 0 0 0 1-1v-6.586l2.707-2.707-1.414-1.414ZM21 39h-6v-6h5.586L18 35.586l-1.293-1.293-1.414 1.414 2 2a1 1 0 0 0 1.414 0L21 35.414ZM24.293 41.293l-1.833 1.833A.971.971 0 0 0 22 43h-8a1 1 0 0 0-1 1v8a1 1 0 0 0 1 1h8a1 1 0 0 0 1-1v-6.586l2.707-2.707ZM21 51h-6v-6h5.586L18 47.586l-1.293-1.293-1.414 1.414 2 2a1 1 0 0 0 1.414 0L21 47.414Z" fill="#000000" opacity="1" data-original="#000000" class=""></path></g></svg>