<svg width="38" height="38" viewBox="0 0 38 38" fill="none" xmlns="http://www.w3.org/2000/svg">
<path d="M34.9676 9.08584C33.7744 9.61322 32.5093 9.95979 31.2139 10.1141C32.5778 9.29648 33.5985 8.01149 34.0862 6.49795C32.8048 7.26056 31.3999 7.79502 29.9371 8.08413C28.9536 7.03174 27.6499 6.3338 26.2287 6.0988C24.8075 5.8638 23.3485 6.1049 22.0785 6.78464C20.8085 7.46437 19.7987 8.54464 19.206 9.85751C18.6133 11.1704 18.4709 12.6423 18.8011 14.0444C16.202 13.9148 13.6594 13.2397 11.3383 12.0632C9.01722 10.8866 6.96966 9.23486 5.32867 7.21524C4.74793 8.21303 4.44268 9.34719 4.44416 10.5017C4.44416 12.7677 5.59903 14.7695 7.35086 15.9416C6.3135 15.907 5.29914 15.6269 4.39103 15.1243V15.204C4.39098 16.7134 4.91304 18.1763 5.86865 19.3447C6.82426 20.5131 8.1546 21.315 9.63402 21.6143C8.67086 21.8759 7.66072 21.9144 6.68044 21.7268C7.09757 23.0261 7.91065 24.1623 9.0058 24.9764C10.1009 25.7905 11.4233 26.2416 12.7876 26.2666C11.4315 27.3311 9.87891 28.118 8.21861 28.5824C6.55831 29.0468 4.82278 29.1796 3.11115 28.9733C6.09863 30.8946 9.57635 31.9145 13.1283 31.9112C25.152 31.9112 31.7249 21.9519 31.7249 13.3146C31.7249 13.0323 31.7187 12.7505 31.7062 12.4692C32.9851 11.5445 34.0889 10.3994 34.966 9.08741" fill="black"/>
</svg>
